G04 EAGLE Gerber X2 export*
G75*
%MOMM*%
%FSLAX34Y34*%
%LPD*%
%AMOC8*
5,1,8,0,0,1.08239X$1,22.5*%
G01*
%ADD10C,0.254000*%


D10*
X0Y12700D02*
X48Y11593D01*
X193Y10495D01*
X433Y9413D01*
X766Y8356D01*
X1190Y7333D01*
X1701Y6350D01*
X2297Y5416D01*
X2971Y4537D01*
X3720Y3720D01*
X4537Y2971D01*
X5416Y2297D01*
X6350Y1701D01*
X7333Y1190D01*
X8356Y766D01*
X9413Y433D01*
X10495Y193D01*
X11593Y48D01*
X12700Y0D01*
X279400Y0D01*
X280219Y36D01*
X281032Y143D01*
X281833Y320D01*
X282615Y567D01*
X283373Y881D01*
X284100Y1259D01*
X284792Y1700D01*
X285442Y2199D01*
X286047Y2753D01*
X286601Y3358D01*
X287100Y4008D01*
X287541Y4700D01*
X287919Y5427D01*
X288233Y6185D01*
X288480Y6967D01*
X288657Y7768D01*
X288764Y8581D01*
X288800Y9400D01*
X288800Y92100D01*
X288764Y92919D01*
X288657Y93732D01*
X288480Y94533D01*
X288233Y95315D01*
X287919Y96073D01*
X287541Y96800D01*
X287100Y97492D01*
X286601Y98142D01*
X286047Y98747D01*
X285442Y99301D01*
X284792Y99800D01*
X284100Y100241D01*
X283373Y100619D01*
X282615Y100933D01*
X281833Y101180D01*
X281032Y101357D01*
X280219Y101464D01*
X279400Y101500D01*
X12600Y101500D01*
X11502Y101452D01*
X10412Y101309D01*
X9339Y101071D01*
X8291Y100740D01*
X7275Y100319D01*
X6300Y99812D01*
X5373Y99221D01*
X4501Y98552D01*
X3690Y97810D01*
X2948Y96999D01*
X2279Y96127D01*
X1688Y95200D01*
X1181Y94225D01*
X760Y93209D01*
X429Y92161D01*
X191Y91088D01*
X48Y89998D01*
X0Y88900D01*
X0Y12700D01*
M02*
