G04 EAGLE Gerber X2 export*
G75*
%MOMM*%
%FSLAX34Y34*%
%LPD*%
%AMOC8*
5,1,8,0,0,1.08239X$1,22.5*%
G01*
%ADD10C,0.050800*%


D10*
X273074Y81209D02*
X273076Y81131D01*
X273082Y81054D01*
X273091Y80977D01*
X273104Y80901D01*
X273121Y80825D01*
X273142Y80750D01*
X273166Y80677D01*
X273194Y80604D01*
X273226Y80533D01*
X273261Y80464D01*
X273299Y80397D01*
X273340Y80331D01*
X273385Y80268D01*
X273433Y80207D01*
X273483Y80148D01*
X273537Y80092D01*
X273593Y80038D01*
X273652Y79988D01*
X273713Y79940D01*
X273776Y79895D01*
X273842Y79854D01*
X273909Y79816D01*
X273978Y79781D01*
X274049Y79749D01*
X274122Y79721D01*
X274195Y79697D01*
X274270Y79676D01*
X274346Y79659D01*
X274422Y79646D01*
X274499Y79637D01*
X274576Y79631D01*
X274654Y79629D01*
X274769Y79631D01*
X274883Y79637D01*
X274997Y79647D01*
X275111Y79660D01*
X275224Y79678D01*
X275337Y79700D01*
X275449Y79725D01*
X275560Y79754D01*
X275669Y79787D01*
X275778Y79824D01*
X275885Y79864D01*
X275991Y79908D01*
X276095Y79956D01*
X276198Y80007D01*
X276298Y80062D01*
X276397Y80120D01*
X276494Y80182D01*
X276588Y80246D01*
X276681Y80314D01*
X276771Y80386D01*
X276858Y80460D01*
X276943Y80537D01*
X277025Y80617D01*
X276827Y85161D02*
X276825Y85239D01*
X276819Y85316D01*
X276810Y85393D01*
X276797Y85469D01*
X276780Y85545D01*
X276759Y85620D01*
X276735Y85693D01*
X276707Y85766D01*
X276675Y85837D01*
X276640Y85906D01*
X276602Y85973D01*
X276561Y86039D01*
X276516Y86102D01*
X276468Y86163D01*
X276418Y86222D01*
X276364Y86278D01*
X276308Y86332D01*
X276249Y86382D01*
X276188Y86430D01*
X276125Y86475D01*
X276059Y86516D01*
X275992Y86554D01*
X275923Y86589D01*
X275852Y86621D01*
X275779Y86649D01*
X275706Y86673D01*
X275631Y86694D01*
X275555Y86711D01*
X275479Y86724D01*
X275402Y86733D01*
X275325Y86739D01*
X275247Y86741D01*
X275141Y86739D01*
X275035Y86733D01*
X274930Y86724D01*
X274825Y86711D01*
X274720Y86694D01*
X274616Y86673D01*
X274513Y86649D01*
X274411Y86621D01*
X274310Y86589D01*
X274210Y86554D01*
X274112Y86515D01*
X274014Y86472D01*
X273919Y86427D01*
X273825Y86378D01*
X273733Y86325D01*
X273643Y86269D01*
X273555Y86210D01*
X273469Y86148D01*
X276037Y83778D02*
X276104Y83820D01*
X276169Y83865D01*
X276232Y83914D01*
X276293Y83965D01*
X276350Y84020D01*
X276405Y84077D01*
X276458Y84137D01*
X276507Y84199D01*
X276553Y84264D01*
X276595Y84330D01*
X276635Y84399D01*
X276671Y84470D01*
X276703Y84543D01*
X276732Y84617D01*
X276757Y84692D01*
X276778Y84768D01*
X276796Y84846D01*
X276809Y84924D01*
X276819Y85003D01*
X276825Y85082D01*
X276827Y85161D01*
X273864Y82592D02*
X273797Y82550D01*
X273732Y82505D01*
X273669Y82456D01*
X273608Y82405D01*
X273551Y82350D01*
X273496Y82293D01*
X273443Y82233D01*
X273394Y82171D01*
X273348Y82106D01*
X273306Y82040D01*
X273266Y81971D01*
X273230Y81900D01*
X273198Y81827D01*
X273169Y81753D01*
X273144Y81678D01*
X273123Y81602D01*
X273105Y81524D01*
X273092Y81446D01*
X273082Y81367D01*
X273076Y81288D01*
X273074Y81209D01*
X273864Y82592D02*
X276037Y83778D01*
X270105Y84370D02*
X270105Y79629D01*
X270105Y84370D02*
X266549Y84370D01*
X266483Y84368D01*
X266416Y84363D01*
X266351Y84353D01*
X266285Y84340D01*
X266221Y84324D01*
X266158Y84304D01*
X266096Y84280D01*
X266035Y84253D01*
X265976Y84222D01*
X265919Y84188D01*
X265863Y84151D01*
X265810Y84111D01*
X265759Y84069D01*
X265711Y84023D01*
X265665Y83975D01*
X265623Y83924D01*
X265583Y83871D01*
X265546Y83815D01*
X265512Y83758D01*
X265481Y83699D01*
X265454Y83638D01*
X265430Y83576D01*
X265410Y83513D01*
X265394Y83449D01*
X265381Y83383D01*
X265371Y83318D01*
X265366Y83251D01*
X265364Y83185D01*
X265363Y83185D02*
X265363Y79629D01*
X267734Y79629D02*
X267734Y84370D01*
X260877Y82395D02*
X259099Y82395D01*
X260877Y82395D02*
X260951Y82393D01*
X261024Y82387D01*
X261097Y82377D01*
X261169Y82364D01*
X261241Y82346D01*
X261311Y82325D01*
X261381Y82300D01*
X261448Y82271D01*
X261515Y82239D01*
X261579Y82204D01*
X261642Y82164D01*
X261702Y82122D01*
X261760Y82077D01*
X261815Y82028D01*
X261868Y81977D01*
X261918Y81923D01*
X261965Y81866D01*
X262009Y81807D01*
X262049Y81746D01*
X262087Y81682D01*
X262121Y81617D01*
X262151Y81550D01*
X262178Y81481D01*
X262201Y81411D01*
X262220Y81340D01*
X262236Y81268D01*
X262248Y81196D01*
X262256Y81122D01*
X262260Y81049D01*
X262260Y80975D01*
X262256Y80902D01*
X262248Y80828D01*
X262236Y80756D01*
X262220Y80684D01*
X262201Y80613D01*
X262178Y80543D01*
X262151Y80474D01*
X262121Y80407D01*
X262087Y80342D01*
X262049Y80278D01*
X262009Y80217D01*
X261965Y80158D01*
X261918Y80101D01*
X261868Y80047D01*
X261815Y79996D01*
X261760Y79947D01*
X261702Y79902D01*
X261642Y79860D01*
X261579Y79820D01*
X261515Y79785D01*
X261448Y79753D01*
X261381Y79724D01*
X261311Y79699D01*
X261241Y79678D01*
X261169Y79660D01*
X261097Y79647D01*
X261024Y79637D01*
X260951Y79631D01*
X260877Y79629D01*
X259099Y79629D01*
X259099Y83185D01*
X259100Y83185D02*
X259102Y83251D01*
X259107Y83318D01*
X259117Y83383D01*
X259130Y83449D01*
X259146Y83513D01*
X259167Y83576D01*
X259190Y83638D01*
X259217Y83699D01*
X259248Y83758D01*
X259282Y83815D01*
X259319Y83871D01*
X259359Y83924D01*
X259401Y83975D01*
X259447Y84023D01*
X259495Y84069D01*
X259546Y84111D01*
X259599Y84151D01*
X259655Y84188D01*
X259712Y84222D01*
X259771Y84253D01*
X259832Y84280D01*
X259894Y84304D01*
X259957Y84324D01*
X260021Y84340D01*
X260087Y84353D01*
X260152Y84363D01*
X260219Y84368D01*
X260285Y84370D01*
X261865Y84370D01*
X255791Y84370D02*
X255791Y79629D01*
X255791Y84370D02*
X253420Y84370D01*
X253420Y83580D01*
X251825Y84370D02*
X249455Y84370D01*
X251035Y86741D02*
X251035Y80814D01*
X251033Y80748D01*
X251028Y80681D01*
X251018Y80616D01*
X251005Y80550D01*
X250989Y80486D01*
X250969Y80423D01*
X250945Y80361D01*
X250918Y80300D01*
X250887Y80241D01*
X250853Y80184D01*
X250816Y80128D01*
X250776Y80075D01*
X250734Y80024D01*
X250688Y79976D01*
X250640Y79930D01*
X250589Y79888D01*
X250536Y79848D01*
X250480Y79811D01*
X250423Y79777D01*
X250364Y79746D01*
X250303Y79719D01*
X250241Y79695D01*
X250178Y79675D01*
X250114Y79659D01*
X250048Y79646D01*
X249983Y79636D01*
X249916Y79631D01*
X249850Y79629D01*
X249455Y79629D01*
X246581Y79629D02*
X246581Y86741D01*
X244605Y86741D01*
X244518Y86739D01*
X244430Y86733D01*
X244343Y86724D01*
X244257Y86710D01*
X244171Y86693D01*
X244087Y86672D01*
X244003Y86647D01*
X243920Y86618D01*
X243839Y86586D01*
X243759Y86551D01*
X243681Y86512D01*
X243604Y86469D01*
X243530Y86423D01*
X243458Y86374D01*
X243388Y86322D01*
X243320Y86266D01*
X243255Y86208D01*
X243192Y86147D01*
X243133Y86083D01*
X243076Y86016D01*
X243022Y85948D01*
X242971Y85876D01*
X242924Y85803D01*
X242879Y85728D01*
X242838Y85650D01*
X242801Y85571D01*
X242767Y85491D01*
X242737Y85409D01*
X242710Y85326D01*
X242687Y85241D01*
X242668Y85156D01*
X242653Y85070D01*
X242641Y84983D01*
X242633Y84896D01*
X242629Y84809D01*
X242629Y84721D01*
X242633Y84634D01*
X242641Y84547D01*
X242653Y84460D01*
X242668Y84374D01*
X242687Y84289D01*
X242710Y84204D01*
X242737Y84121D01*
X242767Y84039D01*
X242801Y83959D01*
X242838Y83880D01*
X242879Y83802D01*
X242924Y83727D01*
X242971Y83654D01*
X243022Y83582D01*
X243076Y83514D01*
X243133Y83447D01*
X243192Y83383D01*
X243255Y83322D01*
X243320Y83264D01*
X243388Y83208D01*
X243458Y83156D01*
X243530Y83107D01*
X243604Y83061D01*
X243681Y83018D01*
X243759Y82979D01*
X243839Y82944D01*
X243920Y82912D01*
X244003Y82883D01*
X244087Y82858D01*
X244171Y82837D01*
X244257Y82820D01*
X244343Y82806D01*
X244430Y82797D01*
X244518Y82791D01*
X244605Y82789D01*
X244605Y82790D02*
X246581Y82790D01*
X244210Y82790D02*
X242630Y79629D01*
X238640Y79629D02*
X236664Y79629D01*
X238640Y79629D02*
X238706Y79631D01*
X238773Y79636D01*
X238838Y79646D01*
X238904Y79659D01*
X238968Y79675D01*
X239031Y79695D01*
X239093Y79719D01*
X239154Y79746D01*
X239213Y79777D01*
X239270Y79811D01*
X239326Y79848D01*
X239379Y79888D01*
X239430Y79930D01*
X239478Y79976D01*
X239524Y80024D01*
X239566Y80075D01*
X239606Y80128D01*
X239643Y80184D01*
X239677Y80241D01*
X239708Y80300D01*
X239735Y80361D01*
X239759Y80423D01*
X239779Y80486D01*
X239795Y80550D01*
X239808Y80616D01*
X239818Y80681D01*
X239823Y80748D01*
X239825Y80814D01*
X239825Y82790D01*
X239823Y82869D01*
X239817Y82947D01*
X239807Y83025D01*
X239794Y83103D01*
X239776Y83180D01*
X239755Y83256D01*
X239730Y83330D01*
X239701Y83404D01*
X239669Y83476D01*
X239633Y83546D01*
X239593Y83614D01*
X239550Y83680D01*
X239504Y83744D01*
X239455Y83806D01*
X239403Y83865D01*
X239348Y83921D01*
X239290Y83975D01*
X239230Y84025D01*
X239167Y84073D01*
X239102Y84117D01*
X239035Y84158D01*
X238966Y84196D01*
X238895Y84230D01*
X238822Y84261D01*
X238748Y84288D01*
X238673Y84311D01*
X238597Y84330D01*
X238519Y84346D01*
X238441Y84358D01*
X238363Y84366D01*
X238284Y84370D01*
X238206Y84370D01*
X238127Y84366D01*
X238049Y84358D01*
X237971Y84346D01*
X237893Y84330D01*
X237817Y84311D01*
X237742Y84288D01*
X237668Y84261D01*
X237595Y84230D01*
X237524Y84196D01*
X237455Y84158D01*
X237388Y84117D01*
X237323Y84073D01*
X237260Y84025D01*
X237200Y83975D01*
X237142Y83921D01*
X237087Y83865D01*
X237035Y83806D01*
X236986Y83744D01*
X236940Y83680D01*
X236897Y83614D01*
X236857Y83546D01*
X236821Y83476D01*
X236789Y83404D01*
X236760Y83330D01*
X236735Y83256D01*
X236714Y83180D01*
X236696Y83103D01*
X236683Y83025D01*
X236673Y82947D01*
X236667Y82869D01*
X236665Y82790D01*
X236664Y82790D02*
X236664Y82000D01*
X239825Y82000D01*
X233289Y82395D02*
X231314Y81605D01*
X233289Y82395D02*
X233347Y82420D01*
X233403Y82449D01*
X233458Y82481D01*
X233510Y82517D01*
X233560Y82556D01*
X233607Y82597D01*
X233652Y82642D01*
X233694Y82689D01*
X233733Y82738D01*
X233769Y82790D01*
X233802Y82844D01*
X233831Y82900D01*
X233857Y82958D01*
X233879Y83017D01*
X233897Y83078D01*
X233912Y83139D01*
X233923Y83201D01*
X233930Y83264D01*
X233933Y83327D01*
X233932Y83390D01*
X233927Y83453D01*
X233919Y83516D01*
X233906Y83578D01*
X233890Y83639D01*
X233870Y83699D01*
X233847Y83757D01*
X233820Y83814D01*
X233789Y83869D01*
X233755Y83923D01*
X233718Y83974D01*
X233678Y84022D01*
X233635Y84069D01*
X233589Y84112D01*
X233540Y84152D01*
X233489Y84190D01*
X233436Y84224D01*
X233381Y84255D01*
X233324Y84282D01*
X233266Y84306D01*
X233206Y84326D01*
X233145Y84342D01*
X233083Y84355D01*
X233020Y84364D01*
X232958Y84369D01*
X232894Y84370D01*
X232894Y84371D02*
X232763Y84367D01*
X232632Y84359D01*
X232502Y84348D01*
X232372Y84333D01*
X232242Y84313D01*
X232113Y84291D01*
X231985Y84264D01*
X231857Y84234D01*
X231731Y84200D01*
X231605Y84162D01*
X231481Y84121D01*
X231358Y84076D01*
X231236Y84027D01*
X231116Y83975D01*
X231314Y81604D02*
X231256Y81579D01*
X231200Y81550D01*
X231145Y81518D01*
X231093Y81482D01*
X231043Y81443D01*
X230996Y81402D01*
X230951Y81357D01*
X230909Y81310D01*
X230870Y81261D01*
X230834Y81209D01*
X230801Y81155D01*
X230772Y81099D01*
X230746Y81041D01*
X230724Y80982D01*
X230706Y80921D01*
X230691Y80860D01*
X230680Y80798D01*
X230673Y80735D01*
X230670Y80672D01*
X230671Y80609D01*
X230676Y80546D01*
X230684Y80483D01*
X230697Y80421D01*
X230713Y80360D01*
X230733Y80300D01*
X230756Y80242D01*
X230783Y80185D01*
X230814Y80130D01*
X230848Y80076D01*
X230885Y80025D01*
X230925Y79977D01*
X230968Y79930D01*
X231014Y79887D01*
X231063Y79847D01*
X231114Y79809D01*
X231167Y79775D01*
X231222Y79744D01*
X231279Y79717D01*
X231337Y79693D01*
X231397Y79673D01*
X231458Y79657D01*
X231520Y79644D01*
X231583Y79635D01*
X231645Y79630D01*
X231709Y79629D01*
X231867Y79633D01*
X232025Y79641D01*
X232183Y79652D01*
X232341Y79668D01*
X232499Y79687D01*
X232655Y79710D01*
X232812Y79736D01*
X232967Y79766D01*
X233122Y79800D01*
X233276Y79838D01*
X233429Y79879D01*
X233581Y79924D01*
X233732Y79972D01*
X233882Y80024D01*
X227677Y77258D02*
X227677Y84370D01*
X225702Y84370D01*
X225636Y84368D01*
X225569Y84363D01*
X225504Y84353D01*
X225438Y84340D01*
X225374Y84324D01*
X225311Y84304D01*
X225249Y84280D01*
X225188Y84253D01*
X225129Y84222D01*
X225072Y84188D01*
X225016Y84151D01*
X224963Y84111D01*
X224912Y84069D01*
X224864Y84023D01*
X224818Y83975D01*
X224776Y83924D01*
X224736Y83871D01*
X224699Y83815D01*
X224665Y83758D01*
X224634Y83699D01*
X224607Y83639D01*
X224584Y83576D01*
X224563Y83513D01*
X224547Y83449D01*
X224534Y83384D01*
X224524Y83318D01*
X224519Y83252D01*
X224517Y83185D01*
X224516Y83185D02*
X224516Y80814D01*
X224517Y80814D02*
X224519Y80748D01*
X224524Y80681D01*
X224534Y80616D01*
X224547Y80550D01*
X224563Y80486D01*
X224584Y80423D01*
X224607Y80361D01*
X224634Y80300D01*
X224665Y80241D01*
X224699Y80184D01*
X224736Y80128D01*
X224776Y80075D01*
X224818Y80024D01*
X224864Y79976D01*
X224912Y79930D01*
X224963Y79888D01*
X225016Y79848D01*
X225072Y79811D01*
X225129Y79777D01*
X225188Y79746D01*
X225249Y79719D01*
X225311Y79695D01*
X225374Y79675D01*
X225438Y79659D01*
X225504Y79646D01*
X225569Y79636D01*
X225636Y79631D01*
X225702Y79629D01*
X227677Y79629D01*
X221766Y81209D02*
X221766Y82790D01*
X221764Y82869D01*
X221758Y82947D01*
X221748Y83025D01*
X221735Y83103D01*
X221717Y83180D01*
X221696Y83256D01*
X221671Y83330D01*
X221642Y83404D01*
X221610Y83476D01*
X221574Y83546D01*
X221534Y83614D01*
X221491Y83680D01*
X221445Y83744D01*
X221396Y83806D01*
X221344Y83865D01*
X221289Y83921D01*
X221231Y83975D01*
X221171Y84025D01*
X221108Y84073D01*
X221043Y84117D01*
X220976Y84158D01*
X220907Y84196D01*
X220836Y84230D01*
X220763Y84261D01*
X220689Y84288D01*
X220614Y84311D01*
X220538Y84330D01*
X220460Y84346D01*
X220382Y84358D01*
X220304Y84366D01*
X220225Y84370D01*
X220147Y84370D01*
X220068Y84366D01*
X219990Y84358D01*
X219912Y84346D01*
X219834Y84330D01*
X219758Y84311D01*
X219683Y84288D01*
X219609Y84261D01*
X219536Y84230D01*
X219465Y84196D01*
X219396Y84158D01*
X219329Y84117D01*
X219264Y84073D01*
X219201Y84025D01*
X219141Y83975D01*
X219083Y83921D01*
X219028Y83865D01*
X218976Y83806D01*
X218927Y83744D01*
X218881Y83680D01*
X218838Y83614D01*
X218798Y83546D01*
X218762Y83476D01*
X218730Y83404D01*
X218701Y83330D01*
X218676Y83256D01*
X218655Y83180D01*
X218637Y83103D01*
X218624Y83025D01*
X218614Y82947D01*
X218608Y82869D01*
X218606Y82790D01*
X218605Y82790D02*
X218605Y81209D01*
X218606Y81209D02*
X218608Y81130D01*
X218614Y81052D01*
X218624Y80974D01*
X218637Y80896D01*
X218655Y80819D01*
X218676Y80743D01*
X218701Y80669D01*
X218730Y80595D01*
X218762Y80523D01*
X218798Y80453D01*
X218838Y80385D01*
X218881Y80319D01*
X218927Y80255D01*
X218976Y80193D01*
X219028Y80134D01*
X219083Y80078D01*
X219141Y80024D01*
X219201Y79974D01*
X219264Y79926D01*
X219329Y79882D01*
X219396Y79841D01*
X219465Y79803D01*
X219536Y79769D01*
X219609Y79738D01*
X219683Y79711D01*
X219758Y79688D01*
X219834Y79669D01*
X219912Y79653D01*
X219990Y79641D01*
X220068Y79633D01*
X220147Y79629D01*
X220225Y79629D01*
X220304Y79633D01*
X220382Y79641D01*
X220460Y79653D01*
X220538Y79669D01*
X220614Y79688D01*
X220689Y79711D01*
X220763Y79738D01*
X220836Y79769D01*
X220907Y79803D01*
X220976Y79841D01*
X221043Y79882D01*
X221108Y79926D01*
X221171Y79974D01*
X221231Y80024D01*
X221289Y80078D01*
X221344Y80134D01*
X221396Y80193D01*
X221445Y80255D01*
X221491Y80319D01*
X221534Y80385D01*
X221574Y80453D01*
X221610Y80523D01*
X221642Y80595D01*
X221671Y80669D01*
X221696Y80743D01*
X221717Y80819D01*
X221735Y80896D01*
X221748Y80974D01*
X221758Y81052D01*
X221764Y81130D01*
X221766Y81209D01*
X215594Y79629D02*
X215594Y84370D01*
X213618Y84370D01*
X213552Y84368D01*
X213485Y84363D01*
X213420Y84353D01*
X213354Y84340D01*
X213290Y84324D01*
X213227Y84304D01*
X213165Y84280D01*
X213104Y84253D01*
X213045Y84222D01*
X212988Y84188D01*
X212932Y84151D01*
X212879Y84111D01*
X212828Y84069D01*
X212780Y84023D01*
X212734Y83975D01*
X212692Y83924D01*
X212652Y83871D01*
X212615Y83815D01*
X212581Y83758D01*
X212550Y83699D01*
X212523Y83639D01*
X212500Y83576D01*
X212479Y83513D01*
X212463Y83449D01*
X212450Y83384D01*
X212440Y83318D01*
X212435Y83252D01*
X212433Y83185D01*
X212433Y79629D01*
X208829Y82395D02*
X206854Y81605D01*
X208829Y82395D02*
X208887Y82420D01*
X208943Y82449D01*
X208998Y82481D01*
X209050Y82517D01*
X209100Y82556D01*
X209147Y82597D01*
X209192Y82642D01*
X209234Y82689D01*
X209273Y82738D01*
X209309Y82790D01*
X209342Y82844D01*
X209371Y82900D01*
X209397Y82958D01*
X209419Y83017D01*
X209437Y83078D01*
X209452Y83139D01*
X209463Y83201D01*
X209470Y83264D01*
X209473Y83327D01*
X209472Y83390D01*
X209467Y83453D01*
X209459Y83516D01*
X209446Y83578D01*
X209430Y83639D01*
X209410Y83699D01*
X209387Y83757D01*
X209360Y83814D01*
X209329Y83869D01*
X209295Y83923D01*
X209258Y83974D01*
X209218Y84022D01*
X209175Y84069D01*
X209129Y84112D01*
X209080Y84152D01*
X209029Y84190D01*
X208976Y84224D01*
X208921Y84255D01*
X208864Y84282D01*
X208806Y84306D01*
X208746Y84326D01*
X208685Y84342D01*
X208623Y84355D01*
X208560Y84364D01*
X208498Y84369D01*
X208434Y84370D01*
X208434Y84371D02*
X208303Y84367D01*
X208172Y84359D01*
X208042Y84348D01*
X207912Y84333D01*
X207782Y84313D01*
X207653Y84291D01*
X207525Y84264D01*
X207397Y84234D01*
X207271Y84200D01*
X207145Y84162D01*
X207021Y84121D01*
X206898Y84076D01*
X206776Y84027D01*
X206656Y83975D01*
X206854Y81604D02*
X206796Y81579D01*
X206740Y81550D01*
X206685Y81518D01*
X206633Y81482D01*
X206583Y81443D01*
X206536Y81402D01*
X206491Y81357D01*
X206449Y81310D01*
X206410Y81261D01*
X206374Y81209D01*
X206341Y81155D01*
X206312Y81099D01*
X206286Y81041D01*
X206264Y80982D01*
X206246Y80921D01*
X206231Y80860D01*
X206220Y80798D01*
X206213Y80735D01*
X206210Y80672D01*
X206211Y80609D01*
X206216Y80546D01*
X206224Y80483D01*
X206237Y80421D01*
X206253Y80360D01*
X206273Y80300D01*
X206296Y80242D01*
X206323Y80185D01*
X206354Y80130D01*
X206388Y80076D01*
X206425Y80025D01*
X206465Y79977D01*
X206508Y79930D01*
X206554Y79887D01*
X206603Y79847D01*
X206654Y79809D01*
X206707Y79775D01*
X206762Y79744D01*
X206819Y79717D01*
X206877Y79693D01*
X206937Y79673D01*
X206998Y79657D01*
X207060Y79644D01*
X207123Y79635D01*
X207185Y79630D01*
X207249Y79629D01*
X207407Y79633D01*
X207565Y79641D01*
X207723Y79652D01*
X207881Y79668D01*
X208039Y79687D01*
X208195Y79710D01*
X208352Y79736D01*
X208507Y79766D01*
X208662Y79800D01*
X208816Y79838D01*
X208969Y79879D01*
X209121Y79924D01*
X209272Y79972D01*
X209422Y80024D01*
X202293Y79629D02*
X200317Y79629D01*
X202293Y79629D02*
X202359Y79631D01*
X202426Y79636D01*
X202491Y79646D01*
X202557Y79659D01*
X202621Y79675D01*
X202684Y79695D01*
X202746Y79719D01*
X202807Y79746D01*
X202866Y79777D01*
X202923Y79811D01*
X202979Y79848D01*
X203032Y79888D01*
X203083Y79930D01*
X203131Y79976D01*
X203177Y80024D01*
X203219Y80075D01*
X203259Y80128D01*
X203296Y80184D01*
X203330Y80241D01*
X203361Y80300D01*
X203388Y80361D01*
X203412Y80423D01*
X203432Y80486D01*
X203448Y80550D01*
X203461Y80616D01*
X203471Y80681D01*
X203476Y80748D01*
X203478Y80814D01*
X203478Y82790D01*
X203476Y82869D01*
X203470Y82947D01*
X203460Y83025D01*
X203447Y83103D01*
X203429Y83180D01*
X203408Y83256D01*
X203383Y83330D01*
X203354Y83404D01*
X203322Y83476D01*
X203286Y83546D01*
X203246Y83614D01*
X203203Y83680D01*
X203157Y83744D01*
X203108Y83806D01*
X203056Y83865D01*
X203001Y83921D01*
X202943Y83975D01*
X202883Y84025D01*
X202820Y84073D01*
X202755Y84117D01*
X202688Y84158D01*
X202619Y84196D01*
X202548Y84230D01*
X202475Y84261D01*
X202401Y84288D01*
X202326Y84311D01*
X202250Y84330D01*
X202172Y84346D01*
X202094Y84358D01*
X202016Y84366D01*
X201937Y84370D01*
X201859Y84370D01*
X201780Y84366D01*
X201702Y84358D01*
X201624Y84346D01*
X201546Y84330D01*
X201470Y84311D01*
X201395Y84288D01*
X201321Y84261D01*
X201248Y84230D01*
X201177Y84196D01*
X201108Y84158D01*
X201041Y84117D01*
X200976Y84073D01*
X200913Y84025D01*
X200853Y83975D01*
X200795Y83921D01*
X200740Y83865D01*
X200688Y83806D01*
X200639Y83744D01*
X200593Y83680D01*
X200550Y83614D01*
X200510Y83546D01*
X200474Y83476D01*
X200442Y83404D01*
X200413Y83330D01*
X200388Y83256D01*
X200367Y83180D01*
X200349Y83103D01*
X200336Y83025D01*
X200326Y82947D01*
X200320Y82869D01*
X200318Y82790D01*
X200317Y82790D02*
X200317Y82000D01*
X203478Y82000D01*
X197868Y79629D02*
X193126Y86741D01*
X197868Y86741D02*
X193126Y79629D01*
X190374Y79629D02*
X187213Y79629D01*
X190374Y79629D02*
X190374Y86741D01*
X187213Y86741D01*
X188003Y83580D02*
X190374Y83580D01*
X273234Y72940D02*
X273234Y65828D01*
X273234Y72940D02*
X271258Y72940D01*
X271192Y72938D01*
X271125Y72933D01*
X271060Y72923D01*
X270994Y72910D01*
X270930Y72894D01*
X270867Y72874D01*
X270805Y72850D01*
X270744Y72823D01*
X270685Y72792D01*
X270628Y72758D01*
X270572Y72721D01*
X270519Y72681D01*
X270468Y72639D01*
X270420Y72593D01*
X270374Y72545D01*
X270332Y72494D01*
X270292Y72441D01*
X270255Y72385D01*
X270221Y72328D01*
X270190Y72269D01*
X270163Y72209D01*
X270140Y72146D01*
X270119Y72083D01*
X270103Y72019D01*
X270090Y71954D01*
X270080Y71888D01*
X270075Y71822D01*
X270073Y71755D01*
X270073Y69384D01*
X270075Y69318D01*
X270080Y69251D01*
X270090Y69186D01*
X270103Y69120D01*
X270119Y69056D01*
X270140Y68993D01*
X270163Y68931D01*
X270190Y68870D01*
X270221Y68811D01*
X270255Y68754D01*
X270292Y68698D01*
X270332Y68645D01*
X270374Y68594D01*
X270420Y68546D01*
X270468Y68500D01*
X270519Y68458D01*
X270572Y68418D01*
X270628Y68381D01*
X270685Y68347D01*
X270744Y68316D01*
X270805Y68289D01*
X270867Y68265D01*
X270930Y68245D01*
X270994Y68229D01*
X271060Y68216D01*
X271125Y68206D01*
X271192Y68201D01*
X271258Y68199D01*
X273234Y68199D01*
X267323Y69779D02*
X267323Y71360D01*
X267322Y71360D02*
X267320Y71439D01*
X267314Y71517D01*
X267304Y71595D01*
X267291Y71673D01*
X267273Y71750D01*
X267252Y71826D01*
X267227Y71900D01*
X267198Y71974D01*
X267166Y72046D01*
X267130Y72116D01*
X267090Y72184D01*
X267047Y72250D01*
X267001Y72314D01*
X266952Y72376D01*
X266900Y72435D01*
X266845Y72491D01*
X266787Y72545D01*
X266727Y72595D01*
X266664Y72643D01*
X266599Y72687D01*
X266532Y72728D01*
X266463Y72766D01*
X266392Y72800D01*
X266319Y72831D01*
X266245Y72858D01*
X266170Y72881D01*
X266094Y72900D01*
X266016Y72916D01*
X265938Y72928D01*
X265860Y72936D01*
X265781Y72940D01*
X265703Y72940D01*
X265624Y72936D01*
X265546Y72928D01*
X265468Y72916D01*
X265390Y72900D01*
X265314Y72881D01*
X265239Y72858D01*
X265165Y72831D01*
X265092Y72800D01*
X265021Y72766D01*
X264952Y72728D01*
X264885Y72687D01*
X264820Y72643D01*
X264757Y72595D01*
X264697Y72545D01*
X264639Y72491D01*
X264584Y72435D01*
X264532Y72376D01*
X264483Y72314D01*
X264437Y72250D01*
X264394Y72184D01*
X264354Y72116D01*
X264318Y72046D01*
X264286Y71974D01*
X264257Y71900D01*
X264232Y71826D01*
X264211Y71750D01*
X264193Y71673D01*
X264180Y71595D01*
X264170Y71517D01*
X264164Y71439D01*
X264162Y71360D01*
X264162Y69779D01*
X264164Y69700D01*
X264170Y69622D01*
X264180Y69544D01*
X264193Y69466D01*
X264211Y69389D01*
X264232Y69313D01*
X264257Y69239D01*
X264286Y69165D01*
X264318Y69093D01*
X264354Y69023D01*
X264394Y68955D01*
X264437Y68889D01*
X264483Y68825D01*
X264532Y68763D01*
X264584Y68704D01*
X264639Y68648D01*
X264697Y68594D01*
X264757Y68544D01*
X264820Y68496D01*
X264885Y68452D01*
X264952Y68411D01*
X265021Y68373D01*
X265092Y68339D01*
X265165Y68308D01*
X265239Y68281D01*
X265314Y68258D01*
X265390Y68239D01*
X265468Y68223D01*
X265546Y68211D01*
X265624Y68203D01*
X265703Y68199D01*
X265781Y68199D01*
X265860Y68203D01*
X265938Y68211D01*
X266016Y68223D01*
X266094Y68239D01*
X266170Y68258D01*
X266245Y68281D01*
X266319Y68308D01*
X266392Y68339D01*
X266463Y68373D01*
X266532Y68411D01*
X266599Y68452D01*
X266664Y68496D01*
X266727Y68544D01*
X266787Y68594D01*
X266845Y68648D01*
X266900Y68704D01*
X266952Y68763D01*
X267001Y68825D01*
X267047Y68889D01*
X267090Y68955D01*
X267130Y69023D01*
X267166Y69093D01*
X267198Y69165D01*
X267227Y69239D01*
X267252Y69313D01*
X267273Y69389D01*
X267291Y69466D01*
X267304Y69544D01*
X267314Y69622D01*
X267320Y69700D01*
X267322Y69779D01*
X260226Y68199D02*
X258251Y68199D01*
X260226Y68199D02*
X260292Y68201D01*
X260359Y68206D01*
X260424Y68216D01*
X260490Y68229D01*
X260554Y68245D01*
X260617Y68265D01*
X260679Y68289D01*
X260740Y68316D01*
X260799Y68347D01*
X260856Y68381D01*
X260912Y68418D01*
X260965Y68458D01*
X261016Y68500D01*
X261064Y68546D01*
X261110Y68594D01*
X261152Y68645D01*
X261192Y68698D01*
X261229Y68754D01*
X261263Y68811D01*
X261294Y68870D01*
X261321Y68931D01*
X261345Y68993D01*
X261365Y69056D01*
X261381Y69120D01*
X261394Y69186D01*
X261404Y69251D01*
X261409Y69318D01*
X261411Y69384D01*
X261412Y69384D02*
X261412Y71755D01*
X261411Y71755D02*
X261409Y71821D01*
X261404Y71888D01*
X261394Y71953D01*
X261381Y72019D01*
X261365Y72083D01*
X261345Y72146D01*
X261321Y72208D01*
X261294Y72269D01*
X261263Y72328D01*
X261229Y72385D01*
X261192Y72441D01*
X261152Y72494D01*
X261110Y72545D01*
X261064Y72593D01*
X261016Y72639D01*
X260965Y72681D01*
X260912Y72721D01*
X260856Y72758D01*
X260799Y72792D01*
X260740Y72823D01*
X260679Y72850D01*
X260617Y72874D01*
X260554Y72894D01*
X260490Y72910D01*
X260424Y72923D01*
X260359Y72933D01*
X260292Y72938D01*
X260226Y72940D01*
X258251Y72940D01*
X258251Y67014D01*
X258253Y66948D01*
X258258Y66881D01*
X258268Y66816D01*
X258281Y66750D01*
X258297Y66686D01*
X258317Y66623D01*
X258341Y66561D01*
X258368Y66500D01*
X258399Y66441D01*
X258433Y66384D01*
X258470Y66328D01*
X258510Y66275D01*
X258552Y66224D01*
X258598Y66176D01*
X258646Y66130D01*
X258697Y66088D01*
X258750Y66048D01*
X258806Y66011D01*
X258863Y65977D01*
X258922Y65946D01*
X258983Y65919D01*
X259045Y65895D01*
X259108Y65875D01*
X259172Y65859D01*
X259238Y65846D01*
X259303Y65836D01*
X259370Y65831D01*
X259436Y65829D01*
X259436Y65828D02*
X261016Y65828D01*
X255207Y69779D02*
X255207Y71360D01*
X255205Y71439D01*
X255199Y71517D01*
X255189Y71595D01*
X255176Y71673D01*
X255158Y71750D01*
X255137Y71826D01*
X255112Y71900D01*
X255083Y71974D01*
X255051Y72046D01*
X255015Y72116D01*
X254975Y72184D01*
X254932Y72250D01*
X254886Y72314D01*
X254837Y72376D01*
X254785Y72435D01*
X254730Y72491D01*
X254672Y72545D01*
X254612Y72595D01*
X254549Y72643D01*
X254484Y72687D01*
X254417Y72728D01*
X254348Y72766D01*
X254277Y72800D01*
X254204Y72831D01*
X254130Y72858D01*
X254055Y72881D01*
X253979Y72900D01*
X253901Y72916D01*
X253823Y72928D01*
X253745Y72936D01*
X253666Y72940D01*
X253588Y72940D01*
X253509Y72936D01*
X253431Y72928D01*
X253353Y72916D01*
X253275Y72900D01*
X253199Y72881D01*
X253124Y72858D01*
X253050Y72831D01*
X252977Y72800D01*
X252906Y72766D01*
X252837Y72728D01*
X252770Y72687D01*
X252705Y72643D01*
X252642Y72595D01*
X252582Y72545D01*
X252524Y72491D01*
X252469Y72435D01*
X252417Y72376D01*
X252368Y72314D01*
X252322Y72250D01*
X252279Y72184D01*
X252239Y72116D01*
X252203Y72046D01*
X252171Y71974D01*
X252142Y71900D01*
X252117Y71826D01*
X252096Y71750D01*
X252078Y71673D01*
X252065Y71595D01*
X252055Y71517D01*
X252049Y71439D01*
X252047Y71360D01*
X252046Y71360D02*
X252046Y69779D01*
X252047Y69779D02*
X252049Y69700D01*
X252055Y69622D01*
X252065Y69544D01*
X252078Y69466D01*
X252096Y69389D01*
X252117Y69313D01*
X252142Y69239D01*
X252171Y69165D01*
X252203Y69093D01*
X252239Y69023D01*
X252279Y68955D01*
X252322Y68889D01*
X252368Y68825D01*
X252417Y68763D01*
X252469Y68704D01*
X252524Y68648D01*
X252582Y68594D01*
X252642Y68544D01*
X252705Y68496D01*
X252770Y68452D01*
X252837Y68411D01*
X252906Y68373D01*
X252977Y68339D01*
X253050Y68308D01*
X253124Y68281D01*
X253199Y68258D01*
X253275Y68239D01*
X253353Y68223D01*
X253431Y68211D01*
X253509Y68203D01*
X253588Y68199D01*
X253666Y68199D01*
X253745Y68203D01*
X253823Y68211D01*
X253901Y68223D01*
X253979Y68239D01*
X254055Y68258D01*
X254130Y68281D01*
X254204Y68308D01*
X254277Y68339D01*
X254348Y68373D01*
X254417Y68411D01*
X254484Y68452D01*
X254549Y68496D01*
X254612Y68544D01*
X254672Y68594D01*
X254730Y68648D01*
X254785Y68704D01*
X254837Y68763D01*
X254886Y68825D01*
X254932Y68889D01*
X254975Y68955D01*
X255015Y69023D01*
X255051Y69093D01*
X255083Y69165D01*
X255112Y69239D01*
X255137Y69313D01*
X255158Y69389D01*
X255176Y69466D01*
X255189Y69544D01*
X255199Y69622D01*
X255205Y69700D01*
X255207Y69779D01*
X245345Y72940D02*
X245345Y65828D01*
X245345Y72940D02*
X243369Y72940D01*
X243303Y72938D01*
X243236Y72933D01*
X243171Y72923D01*
X243105Y72910D01*
X243041Y72894D01*
X242978Y72874D01*
X242916Y72850D01*
X242855Y72823D01*
X242796Y72792D01*
X242739Y72758D01*
X242683Y72721D01*
X242630Y72681D01*
X242579Y72639D01*
X242531Y72593D01*
X242485Y72545D01*
X242443Y72494D01*
X242403Y72441D01*
X242366Y72385D01*
X242332Y72328D01*
X242301Y72269D01*
X242274Y72209D01*
X242251Y72146D01*
X242230Y72083D01*
X242214Y72019D01*
X242201Y71954D01*
X242191Y71888D01*
X242186Y71822D01*
X242184Y71755D01*
X242184Y69384D01*
X242186Y69318D01*
X242191Y69251D01*
X242201Y69186D01*
X242214Y69120D01*
X242230Y69056D01*
X242251Y68993D01*
X242274Y68931D01*
X242301Y68870D01*
X242332Y68811D01*
X242366Y68754D01*
X242403Y68698D01*
X242443Y68645D01*
X242485Y68594D01*
X242531Y68546D01*
X242579Y68500D01*
X242630Y68458D01*
X242683Y68418D01*
X242739Y68381D01*
X242796Y68347D01*
X242855Y68316D01*
X242916Y68289D01*
X242978Y68265D01*
X243041Y68245D01*
X243105Y68229D01*
X243171Y68216D01*
X243236Y68206D01*
X243303Y68201D01*
X243369Y68199D01*
X245345Y68199D01*
X239169Y68199D02*
X239169Y72940D01*
X236798Y72940D01*
X236798Y72150D01*
X234633Y71360D02*
X234633Y69779D01*
X234633Y71360D02*
X234631Y71439D01*
X234625Y71517D01*
X234615Y71595D01*
X234602Y71673D01*
X234584Y71750D01*
X234563Y71826D01*
X234538Y71900D01*
X234509Y71974D01*
X234477Y72046D01*
X234441Y72116D01*
X234401Y72184D01*
X234358Y72250D01*
X234312Y72314D01*
X234263Y72376D01*
X234211Y72435D01*
X234156Y72491D01*
X234098Y72545D01*
X234038Y72595D01*
X233975Y72643D01*
X233910Y72687D01*
X233843Y72728D01*
X233774Y72766D01*
X233703Y72800D01*
X233630Y72831D01*
X233556Y72858D01*
X233481Y72881D01*
X233405Y72900D01*
X233327Y72916D01*
X233249Y72928D01*
X233171Y72936D01*
X233092Y72940D01*
X233014Y72940D01*
X232935Y72936D01*
X232857Y72928D01*
X232779Y72916D01*
X232701Y72900D01*
X232625Y72881D01*
X232550Y72858D01*
X232476Y72831D01*
X232403Y72800D01*
X232332Y72766D01*
X232263Y72728D01*
X232196Y72687D01*
X232131Y72643D01*
X232068Y72595D01*
X232008Y72545D01*
X231950Y72491D01*
X231895Y72435D01*
X231843Y72376D01*
X231794Y72314D01*
X231748Y72250D01*
X231705Y72184D01*
X231665Y72116D01*
X231629Y72046D01*
X231597Y71974D01*
X231568Y71900D01*
X231543Y71826D01*
X231522Y71750D01*
X231504Y71673D01*
X231491Y71595D01*
X231481Y71517D01*
X231475Y71439D01*
X231473Y71360D01*
X231472Y71360D02*
X231472Y69779D01*
X231473Y69779D02*
X231475Y69700D01*
X231481Y69622D01*
X231491Y69544D01*
X231504Y69466D01*
X231522Y69389D01*
X231543Y69313D01*
X231568Y69239D01*
X231597Y69165D01*
X231629Y69093D01*
X231665Y69023D01*
X231705Y68955D01*
X231748Y68889D01*
X231794Y68825D01*
X231843Y68763D01*
X231895Y68704D01*
X231950Y68648D01*
X232008Y68594D01*
X232068Y68544D01*
X232131Y68496D01*
X232196Y68452D01*
X232263Y68411D01*
X232332Y68373D01*
X232403Y68339D01*
X232476Y68308D01*
X232550Y68281D01*
X232625Y68258D01*
X232701Y68239D01*
X232779Y68223D01*
X232857Y68211D01*
X232935Y68203D01*
X233014Y68199D01*
X233092Y68199D01*
X233171Y68203D01*
X233249Y68211D01*
X233327Y68223D01*
X233405Y68239D01*
X233481Y68258D01*
X233556Y68281D01*
X233630Y68308D01*
X233703Y68339D01*
X233774Y68373D01*
X233843Y68411D01*
X233910Y68452D01*
X233975Y68496D01*
X234038Y68544D01*
X234098Y68594D01*
X234156Y68648D01*
X234211Y68704D01*
X234263Y68763D01*
X234312Y68825D01*
X234358Y68889D01*
X234401Y68955D01*
X234441Y69023D01*
X234477Y69093D01*
X234509Y69165D01*
X234538Y69239D01*
X234563Y69313D01*
X234584Y69389D01*
X234602Y69466D01*
X234615Y69544D01*
X234625Y69622D01*
X234631Y69700D01*
X234633Y69779D01*
X227537Y68199D02*
X225561Y68199D01*
X227537Y68199D02*
X227603Y68201D01*
X227670Y68206D01*
X227735Y68216D01*
X227801Y68229D01*
X227865Y68245D01*
X227928Y68265D01*
X227990Y68289D01*
X228051Y68316D01*
X228110Y68347D01*
X228167Y68381D01*
X228223Y68418D01*
X228276Y68458D01*
X228327Y68500D01*
X228375Y68546D01*
X228421Y68594D01*
X228463Y68645D01*
X228503Y68698D01*
X228540Y68754D01*
X228574Y68811D01*
X228605Y68870D01*
X228632Y68931D01*
X228656Y68993D01*
X228676Y69056D01*
X228692Y69120D01*
X228705Y69186D01*
X228715Y69251D01*
X228720Y69318D01*
X228722Y69384D01*
X228722Y71755D01*
X228720Y71821D01*
X228715Y71888D01*
X228705Y71953D01*
X228692Y72019D01*
X228676Y72083D01*
X228656Y72146D01*
X228632Y72208D01*
X228605Y72269D01*
X228574Y72328D01*
X228540Y72385D01*
X228503Y72441D01*
X228463Y72494D01*
X228421Y72545D01*
X228375Y72593D01*
X228327Y72639D01*
X228276Y72681D01*
X228223Y72721D01*
X228167Y72758D01*
X228110Y72792D01*
X228051Y72823D01*
X227990Y72850D01*
X227928Y72874D01*
X227865Y72894D01*
X227801Y72910D01*
X227735Y72923D01*
X227670Y72933D01*
X227603Y72938D01*
X227537Y72940D01*
X225561Y72940D01*
X225561Y67014D01*
X225563Y66948D01*
X225568Y66881D01*
X225578Y66816D01*
X225591Y66750D01*
X225607Y66686D01*
X225627Y66623D01*
X225651Y66561D01*
X225678Y66500D01*
X225709Y66441D01*
X225743Y66384D01*
X225780Y66328D01*
X225820Y66275D01*
X225862Y66224D01*
X225908Y66176D01*
X225956Y66130D01*
X226007Y66088D01*
X226060Y66048D01*
X226116Y66011D01*
X226173Y65977D01*
X226232Y65946D01*
X226293Y65919D01*
X226355Y65895D01*
X226418Y65875D01*
X226482Y65859D01*
X226548Y65846D01*
X226613Y65836D01*
X226680Y65831D01*
X226746Y65829D01*
X226746Y65828D02*
X228327Y65828D01*
X222252Y68199D02*
X222252Y72940D01*
X219882Y72940D01*
X219882Y72150D01*
X216366Y70965D02*
X214588Y70965D01*
X216366Y70965D02*
X216440Y70963D01*
X216513Y70957D01*
X216586Y70947D01*
X216658Y70934D01*
X216730Y70916D01*
X216800Y70895D01*
X216870Y70870D01*
X216937Y70841D01*
X217004Y70809D01*
X217068Y70774D01*
X217131Y70734D01*
X217191Y70692D01*
X217249Y70647D01*
X217304Y70598D01*
X217357Y70547D01*
X217407Y70493D01*
X217454Y70436D01*
X217498Y70377D01*
X217538Y70316D01*
X217576Y70252D01*
X217610Y70187D01*
X217640Y70120D01*
X217667Y70051D01*
X217690Y69981D01*
X217709Y69910D01*
X217725Y69838D01*
X217737Y69766D01*
X217745Y69692D01*
X217749Y69619D01*
X217749Y69545D01*
X217745Y69472D01*
X217737Y69398D01*
X217725Y69326D01*
X217709Y69254D01*
X217690Y69183D01*
X217667Y69113D01*
X217640Y69044D01*
X217610Y68977D01*
X217576Y68912D01*
X217538Y68848D01*
X217498Y68787D01*
X217454Y68728D01*
X217407Y68671D01*
X217357Y68617D01*
X217304Y68566D01*
X217249Y68517D01*
X217191Y68472D01*
X217131Y68430D01*
X217068Y68390D01*
X217004Y68355D01*
X216937Y68323D01*
X216870Y68294D01*
X216800Y68269D01*
X216730Y68248D01*
X216658Y68230D01*
X216586Y68217D01*
X216513Y68207D01*
X216440Y68201D01*
X216366Y68199D01*
X214588Y68199D01*
X214588Y71755D01*
X214589Y71755D02*
X214591Y71821D01*
X214596Y71888D01*
X214606Y71953D01*
X214619Y72019D01*
X214635Y72083D01*
X214656Y72146D01*
X214679Y72208D01*
X214706Y72269D01*
X214737Y72328D01*
X214771Y72385D01*
X214808Y72441D01*
X214848Y72494D01*
X214890Y72545D01*
X214936Y72593D01*
X214984Y72639D01*
X215035Y72681D01*
X215088Y72721D01*
X215144Y72758D01*
X215201Y72792D01*
X215260Y72823D01*
X215321Y72850D01*
X215383Y72874D01*
X215446Y72894D01*
X215510Y72910D01*
X215576Y72923D01*
X215641Y72933D01*
X215708Y72938D01*
X215774Y72940D01*
X217354Y72940D01*
X211192Y72940D02*
X211192Y68199D01*
X211192Y72940D02*
X207636Y72940D01*
X207570Y72938D01*
X207503Y72933D01*
X207438Y72923D01*
X207372Y72910D01*
X207308Y72894D01*
X207245Y72874D01*
X207183Y72850D01*
X207122Y72823D01*
X207063Y72792D01*
X207006Y72758D01*
X206950Y72721D01*
X206897Y72681D01*
X206846Y72639D01*
X206798Y72593D01*
X206752Y72545D01*
X206710Y72494D01*
X206670Y72441D01*
X206633Y72385D01*
X206599Y72328D01*
X206568Y72269D01*
X206541Y72208D01*
X206517Y72146D01*
X206497Y72083D01*
X206481Y72019D01*
X206468Y71953D01*
X206458Y71888D01*
X206453Y71821D01*
X206451Y71755D01*
X206451Y68199D01*
X208821Y68199D02*
X208821Y72940D01*
X202962Y72940D02*
X202962Y68199D01*
X202962Y72940D02*
X199406Y72940D01*
X199340Y72938D01*
X199273Y72933D01*
X199208Y72923D01*
X199142Y72910D01*
X199078Y72894D01*
X199015Y72874D01*
X198953Y72850D01*
X198892Y72823D01*
X198833Y72792D01*
X198776Y72758D01*
X198720Y72721D01*
X198667Y72681D01*
X198616Y72639D01*
X198568Y72593D01*
X198522Y72545D01*
X198480Y72494D01*
X198440Y72441D01*
X198403Y72385D01*
X198369Y72328D01*
X198338Y72269D01*
X198311Y72208D01*
X198287Y72146D01*
X198267Y72083D01*
X198251Y72019D01*
X198238Y71953D01*
X198228Y71888D01*
X198223Y71821D01*
X198221Y71755D01*
X198221Y68199D01*
X200592Y68199D02*
X200592Y72940D01*
X193900Y68199D02*
X191925Y68199D01*
X193900Y68199D02*
X193966Y68201D01*
X194033Y68206D01*
X194098Y68216D01*
X194164Y68229D01*
X194228Y68245D01*
X194291Y68265D01*
X194353Y68289D01*
X194414Y68316D01*
X194473Y68347D01*
X194530Y68381D01*
X194586Y68418D01*
X194639Y68458D01*
X194690Y68500D01*
X194738Y68546D01*
X194784Y68594D01*
X194826Y68645D01*
X194866Y68698D01*
X194903Y68754D01*
X194937Y68811D01*
X194968Y68870D01*
X194995Y68931D01*
X195019Y68993D01*
X195039Y69056D01*
X195055Y69120D01*
X195068Y69186D01*
X195078Y69251D01*
X195083Y69318D01*
X195085Y69384D01*
X195086Y69384D02*
X195086Y71360D01*
X195085Y71360D02*
X195083Y71439D01*
X195077Y71517D01*
X195067Y71595D01*
X195054Y71673D01*
X195036Y71750D01*
X195015Y71826D01*
X194990Y71900D01*
X194961Y71974D01*
X194929Y72046D01*
X194893Y72116D01*
X194853Y72184D01*
X194810Y72250D01*
X194764Y72314D01*
X194715Y72376D01*
X194663Y72435D01*
X194608Y72491D01*
X194550Y72545D01*
X194490Y72595D01*
X194427Y72643D01*
X194362Y72687D01*
X194295Y72728D01*
X194226Y72766D01*
X194155Y72800D01*
X194082Y72831D01*
X194008Y72858D01*
X193933Y72881D01*
X193857Y72900D01*
X193779Y72916D01*
X193701Y72928D01*
X193623Y72936D01*
X193544Y72940D01*
X193466Y72940D01*
X193387Y72936D01*
X193309Y72928D01*
X193231Y72916D01*
X193153Y72900D01*
X193077Y72881D01*
X193002Y72858D01*
X192928Y72831D01*
X192855Y72800D01*
X192784Y72766D01*
X192715Y72728D01*
X192648Y72687D01*
X192583Y72643D01*
X192520Y72595D01*
X192460Y72545D01*
X192402Y72491D01*
X192347Y72435D01*
X192295Y72376D01*
X192246Y72314D01*
X192200Y72250D01*
X192157Y72184D01*
X192117Y72116D01*
X192081Y72046D01*
X192049Y71974D01*
X192020Y71900D01*
X191995Y71826D01*
X191974Y71750D01*
X191956Y71673D01*
X191943Y71595D01*
X191933Y71517D01*
X191927Y71439D01*
X191925Y71360D01*
X191925Y70570D01*
X195086Y70570D01*
X188877Y72940D02*
X188877Y68199D01*
X188877Y72940D02*
X186506Y72940D01*
X186506Y72150D01*
X274464Y52451D02*
X274464Y45339D01*
X274464Y50080D02*
X272489Y50080D01*
X272423Y50078D01*
X272356Y50073D01*
X272291Y50063D01*
X272225Y50050D01*
X272161Y50034D01*
X272098Y50014D01*
X272036Y49990D01*
X271975Y49963D01*
X271916Y49932D01*
X271859Y49898D01*
X271803Y49861D01*
X271750Y49821D01*
X271699Y49779D01*
X271651Y49733D01*
X271605Y49685D01*
X271563Y49634D01*
X271523Y49581D01*
X271486Y49525D01*
X271452Y49468D01*
X271421Y49409D01*
X271394Y49349D01*
X271371Y49286D01*
X271350Y49223D01*
X271334Y49159D01*
X271321Y49094D01*
X271311Y49028D01*
X271306Y48962D01*
X271304Y48895D01*
X271303Y48895D02*
X271303Y45339D01*
X268862Y50080D02*
X266491Y50080D01*
X268072Y52451D02*
X268072Y46524D01*
X268070Y46458D01*
X268065Y46391D01*
X268055Y46326D01*
X268042Y46260D01*
X268026Y46196D01*
X268006Y46133D01*
X267982Y46071D01*
X267955Y46010D01*
X267924Y45951D01*
X267890Y45894D01*
X267853Y45838D01*
X267813Y45785D01*
X267771Y45734D01*
X267725Y45686D01*
X267677Y45640D01*
X267626Y45598D01*
X267573Y45558D01*
X267517Y45521D01*
X267460Y45487D01*
X267401Y45456D01*
X267340Y45429D01*
X267278Y45405D01*
X267215Y45385D01*
X267151Y45369D01*
X267085Y45356D01*
X267020Y45346D01*
X266953Y45341D01*
X266887Y45339D01*
X266491Y45339D01*
X264519Y50080D02*
X262148Y50080D01*
X263729Y52451D02*
X263729Y46524D01*
X263728Y46524D02*
X263726Y46458D01*
X263721Y46391D01*
X263711Y46326D01*
X263698Y46260D01*
X263682Y46196D01*
X263662Y46133D01*
X263638Y46071D01*
X263611Y46010D01*
X263580Y45951D01*
X263546Y45894D01*
X263509Y45838D01*
X263469Y45785D01*
X263427Y45734D01*
X263381Y45686D01*
X263333Y45640D01*
X263282Y45598D01*
X263229Y45558D01*
X263173Y45521D01*
X263116Y45487D01*
X263057Y45456D01*
X262996Y45429D01*
X262934Y45405D01*
X262871Y45385D01*
X262807Y45369D01*
X262741Y45356D01*
X262676Y45346D01*
X262609Y45341D01*
X262543Y45339D01*
X262148Y45339D01*
X259344Y42968D02*
X259344Y50080D01*
X257369Y50080D01*
X257303Y50078D01*
X257236Y50073D01*
X257171Y50063D01*
X257105Y50050D01*
X257041Y50034D01*
X256978Y50014D01*
X256916Y49990D01*
X256855Y49963D01*
X256796Y49932D01*
X256739Y49898D01*
X256683Y49861D01*
X256630Y49821D01*
X256579Y49779D01*
X256531Y49733D01*
X256485Y49685D01*
X256443Y49634D01*
X256403Y49581D01*
X256366Y49525D01*
X256332Y49468D01*
X256301Y49409D01*
X256274Y49349D01*
X256251Y49286D01*
X256230Y49223D01*
X256214Y49159D01*
X256201Y49094D01*
X256191Y49028D01*
X256186Y48962D01*
X256184Y48895D01*
X256183Y48895D02*
X256183Y46524D01*
X256184Y46524D02*
X256186Y46458D01*
X256191Y46391D01*
X256201Y46326D01*
X256214Y46260D01*
X256230Y46196D01*
X256251Y46133D01*
X256274Y46071D01*
X256301Y46010D01*
X256332Y45951D01*
X256366Y45894D01*
X256403Y45838D01*
X256443Y45785D01*
X256485Y45734D01*
X256531Y45686D01*
X256579Y45640D01*
X256630Y45598D01*
X256683Y45558D01*
X256739Y45521D01*
X256796Y45487D01*
X256855Y45456D01*
X256916Y45429D01*
X256978Y45405D01*
X257041Y45385D01*
X257105Y45369D01*
X257171Y45356D01*
X257236Y45346D01*
X257303Y45341D01*
X257369Y45339D01*
X259344Y45339D01*
X253422Y45932D02*
X253422Y46327D01*
X253027Y46327D01*
X253027Y45932D01*
X253422Y45932D01*
X253422Y49093D02*
X253422Y49488D01*
X253027Y49488D01*
X253027Y49093D01*
X253422Y49093D01*
X250461Y44549D02*
X247301Y53241D01*
X241814Y53241D02*
X244975Y44549D01*
X238107Y45339D02*
X236132Y45339D01*
X238107Y45339D02*
X238173Y45341D01*
X238240Y45346D01*
X238305Y45356D01*
X238371Y45369D01*
X238435Y45385D01*
X238498Y45405D01*
X238560Y45429D01*
X238621Y45456D01*
X238680Y45487D01*
X238737Y45521D01*
X238793Y45558D01*
X238846Y45598D01*
X238897Y45640D01*
X238945Y45686D01*
X238991Y45734D01*
X239033Y45785D01*
X239073Y45838D01*
X239110Y45894D01*
X239144Y45951D01*
X239175Y46010D01*
X239202Y46071D01*
X239226Y46133D01*
X239246Y46196D01*
X239262Y46260D01*
X239275Y46326D01*
X239285Y46391D01*
X239290Y46458D01*
X239292Y46524D01*
X239292Y48895D01*
X239290Y48961D01*
X239285Y49028D01*
X239275Y49093D01*
X239262Y49159D01*
X239246Y49223D01*
X239226Y49286D01*
X239202Y49348D01*
X239175Y49409D01*
X239144Y49468D01*
X239110Y49525D01*
X239073Y49581D01*
X239033Y49634D01*
X238991Y49685D01*
X238945Y49733D01*
X238897Y49779D01*
X238846Y49821D01*
X238793Y49861D01*
X238737Y49898D01*
X238680Y49932D01*
X238621Y49963D01*
X238560Y49990D01*
X238498Y50014D01*
X238435Y50034D01*
X238371Y50050D01*
X238305Y50063D01*
X238240Y50073D01*
X238173Y50078D01*
X238107Y50080D01*
X236132Y50080D01*
X236132Y44154D01*
X236134Y44088D01*
X236139Y44021D01*
X236149Y43956D01*
X236162Y43890D01*
X236178Y43826D01*
X236198Y43763D01*
X236222Y43701D01*
X236249Y43640D01*
X236280Y43581D01*
X236314Y43524D01*
X236351Y43468D01*
X236391Y43415D01*
X236433Y43364D01*
X236479Y43316D01*
X236527Y43270D01*
X236578Y43228D01*
X236631Y43188D01*
X236687Y43151D01*
X236744Y43117D01*
X236803Y43086D01*
X236864Y43059D01*
X236926Y43035D01*
X236989Y43015D01*
X237053Y42999D01*
X237119Y42986D01*
X237184Y42976D01*
X237251Y42971D01*
X237317Y42969D01*
X237317Y42968D02*
X238897Y42968D01*
X233108Y45339D02*
X233108Y50080D01*
X233305Y52056D02*
X233305Y52451D01*
X232910Y52451D01*
X232910Y52056D01*
X233305Y52056D01*
X230915Y50080D02*
X228544Y50080D01*
X230125Y52451D02*
X230125Y46524D01*
X230124Y46524D02*
X230122Y46458D01*
X230117Y46391D01*
X230107Y46326D01*
X230094Y46260D01*
X230078Y46196D01*
X230058Y46133D01*
X230034Y46071D01*
X230007Y46010D01*
X229976Y45951D01*
X229942Y45894D01*
X229905Y45838D01*
X229865Y45785D01*
X229823Y45734D01*
X229777Y45686D01*
X229729Y45640D01*
X229678Y45598D01*
X229625Y45558D01*
X229569Y45521D01*
X229512Y45487D01*
X229453Y45456D01*
X229392Y45429D01*
X229330Y45405D01*
X229267Y45385D01*
X229203Y45369D01*
X229137Y45356D01*
X229072Y45346D01*
X229005Y45341D01*
X228939Y45339D01*
X228544Y45339D01*
X226219Y45339D02*
X226219Y45734D01*
X225824Y45734D01*
X225824Y45339D01*
X226219Y45339D01*
X223278Y45339D02*
X223278Y50080D01*
X223476Y52056D02*
X223476Y52451D01*
X223080Y52451D01*
X223080Y52056D01*
X223476Y52056D01*
X220515Y48500D02*
X220515Y46919D01*
X220515Y48500D02*
X220513Y48579D01*
X220507Y48657D01*
X220497Y48735D01*
X220484Y48813D01*
X220466Y48890D01*
X220445Y48966D01*
X220420Y49040D01*
X220391Y49114D01*
X220359Y49186D01*
X220323Y49256D01*
X220283Y49324D01*
X220240Y49390D01*
X220194Y49454D01*
X220145Y49516D01*
X220093Y49575D01*
X220038Y49631D01*
X219980Y49685D01*
X219920Y49735D01*
X219857Y49783D01*
X219792Y49827D01*
X219725Y49868D01*
X219656Y49906D01*
X219585Y49940D01*
X219512Y49971D01*
X219438Y49998D01*
X219363Y50021D01*
X219287Y50040D01*
X219209Y50056D01*
X219131Y50068D01*
X219053Y50076D01*
X218974Y50080D01*
X218896Y50080D01*
X218817Y50076D01*
X218739Y50068D01*
X218661Y50056D01*
X218583Y50040D01*
X218507Y50021D01*
X218432Y49998D01*
X218358Y49971D01*
X218285Y49940D01*
X218214Y49906D01*
X218145Y49868D01*
X218078Y49827D01*
X218013Y49783D01*
X217950Y49735D01*
X217890Y49685D01*
X217832Y49631D01*
X217777Y49575D01*
X217725Y49516D01*
X217676Y49454D01*
X217630Y49390D01*
X217587Y49324D01*
X217547Y49256D01*
X217511Y49186D01*
X217479Y49114D01*
X217450Y49040D01*
X217425Y48966D01*
X217404Y48890D01*
X217386Y48813D01*
X217373Y48735D01*
X217363Y48657D01*
X217357Y48579D01*
X217355Y48500D01*
X217354Y48500D02*
X217354Y46919D01*
X217355Y46919D02*
X217357Y46840D01*
X217363Y46762D01*
X217373Y46684D01*
X217386Y46606D01*
X217404Y46529D01*
X217425Y46453D01*
X217450Y46379D01*
X217479Y46305D01*
X217511Y46233D01*
X217547Y46163D01*
X217587Y46095D01*
X217630Y46029D01*
X217676Y45965D01*
X217725Y45903D01*
X217777Y45844D01*
X217832Y45788D01*
X217890Y45734D01*
X217950Y45684D01*
X218013Y45636D01*
X218078Y45592D01*
X218145Y45551D01*
X218214Y45513D01*
X218285Y45479D01*
X218358Y45448D01*
X218432Y45421D01*
X218507Y45398D01*
X218583Y45379D01*
X218661Y45363D01*
X218739Y45351D01*
X218817Y45343D01*
X218896Y45339D01*
X218974Y45339D01*
X219053Y45343D01*
X219131Y45351D01*
X219209Y45363D01*
X219287Y45379D01*
X219363Y45398D01*
X219438Y45421D01*
X219512Y45448D01*
X219585Y45479D01*
X219656Y45513D01*
X219725Y45551D01*
X219792Y45592D01*
X219857Y45636D01*
X219920Y45684D01*
X219980Y45734D01*
X220038Y45788D01*
X220093Y45844D01*
X220145Y45903D01*
X220194Y45965D01*
X220240Y46029D01*
X220283Y46095D01*
X220323Y46163D01*
X220359Y46233D01*
X220391Y46305D01*
X220420Y46379D01*
X220445Y46453D01*
X220466Y46529D01*
X220484Y46606D01*
X220497Y46684D01*
X220507Y46762D01*
X220513Y46840D01*
X220515Y46919D01*
X214800Y44549D02*
X211639Y53241D01*
X205301Y46919D02*
X205303Y46841D01*
X205309Y46764D01*
X205318Y46687D01*
X205331Y46611D01*
X205348Y46535D01*
X205369Y46460D01*
X205393Y46387D01*
X205421Y46314D01*
X205453Y46243D01*
X205488Y46174D01*
X205526Y46107D01*
X205567Y46041D01*
X205612Y45978D01*
X205660Y45917D01*
X205710Y45858D01*
X205764Y45802D01*
X205820Y45748D01*
X205879Y45698D01*
X205940Y45650D01*
X206003Y45605D01*
X206069Y45564D01*
X206136Y45526D01*
X206205Y45491D01*
X206276Y45459D01*
X206349Y45431D01*
X206422Y45407D01*
X206497Y45386D01*
X206573Y45369D01*
X206649Y45356D01*
X206726Y45347D01*
X206803Y45341D01*
X206881Y45339D01*
X206996Y45341D01*
X207110Y45347D01*
X207224Y45357D01*
X207338Y45370D01*
X207451Y45388D01*
X207564Y45410D01*
X207676Y45435D01*
X207787Y45464D01*
X207896Y45497D01*
X208005Y45534D01*
X208112Y45574D01*
X208218Y45618D01*
X208322Y45666D01*
X208425Y45717D01*
X208525Y45772D01*
X208624Y45830D01*
X208721Y45892D01*
X208815Y45956D01*
X208908Y46024D01*
X208998Y46096D01*
X209085Y46170D01*
X209170Y46247D01*
X209252Y46327D01*
X209054Y50871D02*
X209052Y50949D01*
X209046Y51026D01*
X209037Y51103D01*
X209024Y51179D01*
X209007Y51255D01*
X208986Y51330D01*
X208962Y51403D01*
X208934Y51476D01*
X208902Y51547D01*
X208867Y51616D01*
X208829Y51683D01*
X208788Y51749D01*
X208743Y51812D01*
X208695Y51873D01*
X208645Y51932D01*
X208591Y51988D01*
X208535Y52042D01*
X208476Y52092D01*
X208415Y52140D01*
X208352Y52185D01*
X208286Y52226D01*
X208219Y52264D01*
X208150Y52299D01*
X208079Y52331D01*
X208006Y52359D01*
X207933Y52383D01*
X207858Y52404D01*
X207782Y52421D01*
X207706Y52434D01*
X207629Y52443D01*
X207552Y52449D01*
X207474Y52451D01*
X207368Y52449D01*
X207262Y52443D01*
X207157Y52434D01*
X207052Y52421D01*
X206947Y52404D01*
X206843Y52383D01*
X206740Y52359D01*
X206638Y52331D01*
X206537Y52299D01*
X206437Y52264D01*
X206339Y52225D01*
X206241Y52182D01*
X206146Y52137D01*
X206052Y52088D01*
X205960Y52035D01*
X205870Y51979D01*
X205782Y51920D01*
X205696Y51858D01*
X208264Y49488D02*
X208331Y49530D01*
X208396Y49575D01*
X208459Y49624D01*
X208520Y49675D01*
X208577Y49730D01*
X208632Y49787D01*
X208685Y49847D01*
X208734Y49909D01*
X208780Y49974D01*
X208822Y50040D01*
X208862Y50109D01*
X208898Y50180D01*
X208930Y50253D01*
X208959Y50327D01*
X208984Y50402D01*
X209005Y50478D01*
X209023Y50556D01*
X209036Y50634D01*
X209046Y50713D01*
X209052Y50792D01*
X209054Y50871D01*
X206091Y48302D02*
X206024Y48260D01*
X205959Y48215D01*
X205896Y48166D01*
X205835Y48115D01*
X205778Y48060D01*
X205723Y48003D01*
X205670Y47943D01*
X205621Y47881D01*
X205575Y47816D01*
X205533Y47750D01*
X205493Y47681D01*
X205457Y47610D01*
X205425Y47537D01*
X205396Y47463D01*
X205371Y47388D01*
X205350Y47312D01*
X205332Y47234D01*
X205319Y47156D01*
X205309Y47077D01*
X205303Y46998D01*
X205301Y46919D01*
X206091Y48302D02*
X208264Y49488D01*
X202353Y52451D02*
X202353Y45339D01*
X202353Y52451D02*
X200378Y52451D01*
X200291Y52449D01*
X200203Y52443D01*
X200116Y52434D01*
X200030Y52420D01*
X199944Y52403D01*
X199860Y52382D01*
X199776Y52357D01*
X199693Y52328D01*
X199612Y52296D01*
X199532Y52261D01*
X199454Y52222D01*
X199377Y52179D01*
X199303Y52133D01*
X199231Y52084D01*
X199161Y52032D01*
X199093Y51976D01*
X199028Y51918D01*
X198965Y51857D01*
X198906Y51793D01*
X198849Y51726D01*
X198795Y51658D01*
X198744Y51586D01*
X198697Y51513D01*
X198652Y51438D01*
X198611Y51360D01*
X198574Y51281D01*
X198540Y51201D01*
X198510Y51119D01*
X198483Y51036D01*
X198460Y50951D01*
X198441Y50866D01*
X198426Y50780D01*
X198414Y50693D01*
X198406Y50606D01*
X198402Y50519D01*
X198402Y50431D01*
X198406Y50344D01*
X198414Y50257D01*
X198426Y50170D01*
X198441Y50084D01*
X198460Y49999D01*
X198483Y49914D01*
X198510Y49831D01*
X198540Y49749D01*
X198574Y49669D01*
X198611Y49590D01*
X198652Y49512D01*
X198697Y49437D01*
X198744Y49364D01*
X198795Y49292D01*
X198849Y49224D01*
X198906Y49157D01*
X198965Y49093D01*
X199028Y49032D01*
X199093Y48974D01*
X199161Y48918D01*
X199231Y48866D01*
X199303Y48817D01*
X199377Y48771D01*
X199454Y48728D01*
X199532Y48689D01*
X199612Y48654D01*
X199693Y48622D01*
X199776Y48593D01*
X199860Y48568D01*
X199944Y48547D01*
X200030Y48530D01*
X200116Y48516D01*
X200203Y48507D01*
X200291Y48501D01*
X200378Y48499D01*
X200378Y48500D02*
X202353Y48500D01*
X199983Y48500D02*
X198402Y45339D01*
X195931Y45339D02*
X191190Y52451D01*
X195931Y52451D02*
X191190Y45339D01*
X188437Y45339D02*
X185276Y45339D01*
X188437Y45339D02*
X188437Y52451D01*
X185276Y52451D01*
X186066Y49290D02*
X188437Y49290D01*
X271096Y29591D02*
X271096Y22479D01*
X269121Y22479D01*
X269055Y22481D01*
X268988Y22486D01*
X268923Y22496D01*
X268857Y22509D01*
X268793Y22525D01*
X268730Y22545D01*
X268668Y22569D01*
X268607Y22596D01*
X268548Y22627D01*
X268491Y22661D01*
X268435Y22698D01*
X268382Y22738D01*
X268331Y22780D01*
X268283Y22826D01*
X268237Y22874D01*
X268195Y22925D01*
X268155Y22978D01*
X268118Y23034D01*
X268084Y23091D01*
X268053Y23150D01*
X268026Y23210D01*
X268003Y23273D01*
X267982Y23336D01*
X267966Y23400D01*
X267953Y23465D01*
X267943Y23531D01*
X267938Y23597D01*
X267936Y23664D01*
X267935Y23664D02*
X267935Y26035D01*
X267936Y26035D02*
X267938Y26101D01*
X267943Y26168D01*
X267953Y26233D01*
X267966Y26299D01*
X267982Y26363D01*
X268003Y26426D01*
X268026Y26488D01*
X268053Y26549D01*
X268084Y26608D01*
X268118Y26665D01*
X268155Y26721D01*
X268195Y26774D01*
X268237Y26825D01*
X268283Y26873D01*
X268331Y26919D01*
X268382Y26961D01*
X268435Y27001D01*
X268491Y27038D01*
X268548Y27072D01*
X268607Y27103D01*
X268668Y27130D01*
X268730Y27154D01*
X268793Y27174D01*
X268857Y27190D01*
X268923Y27203D01*
X268988Y27213D01*
X269055Y27218D01*
X269121Y27220D01*
X271096Y27220D01*
X265414Y20108D02*
X264623Y20108D01*
X262253Y27220D01*
X265414Y27220D02*
X263833Y22479D01*
X252403Y28406D02*
X251218Y28406D01*
X252403Y28405D02*
X252469Y28403D01*
X252536Y28398D01*
X252601Y28388D01*
X252667Y28375D01*
X252731Y28359D01*
X252794Y28339D01*
X252856Y28315D01*
X252917Y28288D01*
X252976Y28257D01*
X253033Y28223D01*
X253089Y28186D01*
X253142Y28146D01*
X253193Y28104D01*
X253241Y28058D01*
X253287Y28010D01*
X253329Y27959D01*
X253369Y27906D01*
X253406Y27850D01*
X253440Y27793D01*
X253471Y27734D01*
X253498Y27673D01*
X253522Y27611D01*
X253542Y27548D01*
X253558Y27484D01*
X253571Y27418D01*
X253581Y27353D01*
X253586Y27286D01*
X253588Y27220D01*
X253588Y24850D01*
X253586Y24782D01*
X253580Y24715D01*
X253571Y24648D01*
X253557Y24582D01*
X253540Y24516D01*
X253519Y24452D01*
X253495Y24389D01*
X253466Y24327D01*
X253435Y24267D01*
X253400Y24209D01*
X253362Y24153D01*
X253320Y24100D01*
X253276Y24049D01*
X253229Y24000D01*
X253179Y23954D01*
X253127Y23912D01*
X253072Y23872D01*
X253015Y23835D01*
X252956Y23802D01*
X252895Y23772D01*
X252833Y23746D01*
X252769Y23723D01*
X252704Y23704D01*
X252638Y23689D01*
X252572Y23677D01*
X252504Y23669D01*
X252437Y23665D01*
X252369Y23665D01*
X252302Y23669D01*
X252234Y23677D01*
X252168Y23689D01*
X252102Y23704D01*
X252037Y23723D01*
X251973Y23746D01*
X251911Y23772D01*
X251850Y23802D01*
X251791Y23835D01*
X251734Y23872D01*
X251679Y23912D01*
X251627Y23954D01*
X251577Y24000D01*
X251530Y24049D01*
X251486Y24100D01*
X251444Y24153D01*
X251406Y24209D01*
X251371Y24267D01*
X251340Y24327D01*
X251311Y24389D01*
X251287Y24452D01*
X251266Y24516D01*
X251249Y24582D01*
X251235Y24648D01*
X251226Y24715D01*
X251220Y24782D01*
X251218Y24850D01*
X251218Y24652D02*
X251218Y28406D01*
X251218Y24652D02*
X251216Y24590D01*
X251210Y24528D01*
X251200Y24467D01*
X251187Y24406D01*
X251170Y24347D01*
X251149Y24288D01*
X251124Y24231D01*
X251096Y24176D01*
X251064Y24123D01*
X251029Y24071D01*
X250991Y24022D01*
X250950Y23976D01*
X250906Y23932D01*
X250860Y23891D01*
X250811Y23853D01*
X250759Y23818D01*
X250706Y23786D01*
X250651Y23758D01*
X250594Y23733D01*
X250535Y23712D01*
X250476Y23695D01*
X250415Y23682D01*
X250354Y23672D01*
X250292Y23666D01*
X250230Y23664D01*
X250168Y23666D01*
X250106Y23672D01*
X250045Y23682D01*
X249984Y23695D01*
X249925Y23712D01*
X249866Y23733D01*
X249809Y23758D01*
X249754Y23786D01*
X249701Y23818D01*
X249649Y23853D01*
X249600Y23891D01*
X249554Y23932D01*
X249510Y23976D01*
X249469Y24022D01*
X249431Y24071D01*
X249396Y24123D01*
X249364Y24176D01*
X249336Y24231D01*
X249311Y24288D01*
X249290Y24347D01*
X249273Y24406D01*
X249260Y24467D01*
X249250Y24528D01*
X249244Y24590D01*
X249242Y24652D01*
X249242Y27615D01*
X249244Y27727D01*
X249250Y27838D01*
X249260Y27949D01*
X249273Y28060D01*
X249291Y28170D01*
X249313Y28279D01*
X249338Y28388D01*
X249367Y28496D01*
X249400Y28602D01*
X249437Y28708D01*
X249477Y28812D01*
X249521Y28914D01*
X249569Y29015D01*
X249620Y29114D01*
X249675Y29212D01*
X249733Y29307D01*
X249794Y29400D01*
X249859Y29491D01*
X249927Y29580D01*
X249998Y29666D01*
X250071Y29749D01*
X250148Y29830D01*
X250228Y29909D01*
X250310Y29984D01*
X250395Y30056D01*
X250482Y30126D01*
X250572Y30192D01*
X250664Y30255D01*
X250759Y30315D01*
X250855Y30371D01*
X250953Y30424D01*
X251053Y30473D01*
X251155Y30519D01*
X251258Y30561D01*
X251363Y30600D01*
X251469Y30635D01*
X251576Y30666D01*
X251684Y30693D01*
X251793Y30717D01*
X251903Y30736D01*
X252013Y30752D01*
X252124Y30764D01*
X252236Y30772D01*
X252347Y30776D01*
X252459Y30776D01*
X252570Y30772D01*
X252682Y30764D01*
X252793Y30752D01*
X252903Y30736D01*
X253013Y30717D01*
X253122Y30693D01*
X253230Y30666D01*
X253337Y30635D01*
X253443Y30600D01*
X253548Y30561D01*
X253651Y30519D01*
X253753Y30473D01*
X253853Y30424D01*
X253951Y30371D01*
X254047Y30315D01*
X254142Y30255D01*
X254234Y30192D01*
X254324Y30126D01*
X254411Y30056D01*
X254496Y29984D01*
X254578Y29909D01*
X254658Y29830D01*
X254735Y29749D01*
X254808Y29666D01*
X254879Y29580D01*
X254947Y29491D01*
X255012Y29400D01*
X255073Y29307D01*
X255131Y29212D01*
X255186Y29114D01*
X255237Y29015D01*
X255285Y28914D01*
X255329Y28812D01*
X255369Y28708D01*
X255406Y28602D01*
X255439Y28496D01*
X255468Y28388D01*
X255493Y28279D01*
X255515Y28170D01*
X255533Y28060D01*
X255546Y27949D01*
X255556Y27838D01*
X255562Y27727D01*
X255564Y27615D01*
X255564Y24257D01*
X255562Y24151D01*
X255556Y24045D01*
X255547Y23939D01*
X255534Y23834D01*
X255517Y23729D01*
X255496Y23625D01*
X255471Y23521D01*
X255443Y23419D01*
X255412Y23318D01*
X255376Y23217D01*
X255337Y23119D01*
X255295Y23021D01*
X255249Y22926D01*
X255200Y22831D01*
X255147Y22739D01*
X255091Y22649D01*
X255032Y22561D01*
X254970Y22475D01*
X254904Y22391D01*
X254836Y22309D01*
X254765Y22231D01*
X254691Y22154D01*
X254615Y22081D01*
X254536Y22010D01*
X254454Y21942D01*
X254370Y21877D01*
X254284Y21815D01*
X254196Y21756D01*
X254105Y21700D01*
X254013Y21648D01*
X253919Y21599D01*
X253823Y21553D01*
X253725Y21511D01*
X253626Y21472D01*
X253526Y21437D01*
X253425Y21406D01*
X253322Y21378D01*
X253219Y21353D01*
X253115Y21333D01*
X253010Y21316D01*
X252904Y21303D01*
X252799Y21294D01*
X245390Y25245D02*
X243414Y24455D01*
X245389Y25245D02*
X245447Y25270D01*
X245503Y25299D01*
X245558Y25331D01*
X245610Y25367D01*
X245660Y25406D01*
X245707Y25447D01*
X245752Y25492D01*
X245794Y25539D01*
X245833Y25588D01*
X245869Y25640D01*
X245902Y25694D01*
X245931Y25750D01*
X245957Y25808D01*
X245979Y25867D01*
X245997Y25928D01*
X246012Y25989D01*
X246023Y26051D01*
X246030Y26114D01*
X246033Y26177D01*
X246032Y26240D01*
X246027Y26303D01*
X246019Y26366D01*
X246006Y26428D01*
X245990Y26489D01*
X245970Y26549D01*
X245947Y26607D01*
X245920Y26664D01*
X245889Y26719D01*
X245855Y26773D01*
X245818Y26824D01*
X245778Y26872D01*
X245735Y26919D01*
X245689Y26962D01*
X245640Y27002D01*
X245589Y27040D01*
X245536Y27074D01*
X245481Y27105D01*
X245424Y27132D01*
X245366Y27156D01*
X245306Y27176D01*
X245245Y27192D01*
X245183Y27205D01*
X245120Y27214D01*
X245058Y27219D01*
X244994Y27220D01*
X244995Y27221D02*
X244864Y27217D01*
X244733Y27209D01*
X244603Y27198D01*
X244473Y27183D01*
X244343Y27163D01*
X244214Y27141D01*
X244086Y27114D01*
X243958Y27084D01*
X243832Y27050D01*
X243706Y27012D01*
X243582Y26971D01*
X243459Y26926D01*
X243337Y26877D01*
X243217Y26825D01*
X243415Y24454D02*
X243357Y24429D01*
X243301Y24400D01*
X243246Y24368D01*
X243194Y24332D01*
X243144Y24293D01*
X243097Y24252D01*
X243052Y24207D01*
X243010Y24160D01*
X242971Y24111D01*
X242935Y24059D01*
X242902Y24005D01*
X242873Y23949D01*
X242847Y23891D01*
X242825Y23832D01*
X242807Y23771D01*
X242792Y23710D01*
X242781Y23648D01*
X242774Y23585D01*
X242771Y23522D01*
X242772Y23459D01*
X242777Y23396D01*
X242785Y23333D01*
X242798Y23271D01*
X242814Y23210D01*
X242834Y23150D01*
X242857Y23092D01*
X242884Y23035D01*
X242915Y22980D01*
X242949Y22926D01*
X242986Y22875D01*
X243026Y22827D01*
X243069Y22780D01*
X243115Y22737D01*
X243164Y22697D01*
X243215Y22659D01*
X243268Y22625D01*
X243323Y22594D01*
X243380Y22567D01*
X243438Y22543D01*
X243498Y22523D01*
X243559Y22507D01*
X243621Y22494D01*
X243684Y22485D01*
X243746Y22480D01*
X243810Y22479D01*
X243968Y22483D01*
X244126Y22491D01*
X244284Y22502D01*
X244442Y22518D01*
X244600Y22537D01*
X244756Y22560D01*
X244913Y22586D01*
X245068Y22616D01*
X245223Y22650D01*
X245377Y22688D01*
X245530Y22729D01*
X245682Y22774D01*
X245833Y22822D01*
X245983Y22874D01*
X238854Y22479D02*
X236878Y22479D01*
X238854Y22479D02*
X238920Y22481D01*
X238987Y22486D01*
X239052Y22496D01*
X239118Y22509D01*
X239182Y22525D01*
X239245Y22545D01*
X239307Y22569D01*
X239368Y22596D01*
X239427Y22627D01*
X239484Y22661D01*
X239540Y22698D01*
X239593Y22738D01*
X239644Y22780D01*
X239692Y22826D01*
X239738Y22874D01*
X239780Y22925D01*
X239820Y22978D01*
X239857Y23034D01*
X239891Y23091D01*
X239922Y23150D01*
X239949Y23211D01*
X239973Y23273D01*
X239993Y23336D01*
X240009Y23400D01*
X240022Y23466D01*
X240032Y23531D01*
X240037Y23598D01*
X240039Y23664D01*
X240039Y25640D01*
X240037Y25719D01*
X240031Y25797D01*
X240021Y25875D01*
X240008Y25953D01*
X239990Y26030D01*
X239969Y26106D01*
X239944Y26180D01*
X239915Y26254D01*
X239883Y26326D01*
X239847Y26396D01*
X239807Y26464D01*
X239764Y26530D01*
X239718Y26594D01*
X239669Y26656D01*
X239617Y26715D01*
X239562Y26771D01*
X239504Y26825D01*
X239444Y26875D01*
X239381Y26923D01*
X239316Y26967D01*
X239249Y27008D01*
X239180Y27046D01*
X239109Y27080D01*
X239036Y27111D01*
X238962Y27138D01*
X238887Y27161D01*
X238811Y27180D01*
X238733Y27196D01*
X238655Y27208D01*
X238577Y27216D01*
X238498Y27220D01*
X238420Y27220D01*
X238341Y27216D01*
X238263Y27208D01*
X238185Y27196D01*
X238107Y27180D01*
X238031Y27161D01*
X237956Y27138D01*
X237882Y27111D01*
X237809Y27080D01*
X237738Y27046D01*
X237669Y27008D01*
X237602Y26967D01*
X237537Y26923D01*
X237474Y26875D01*
X237414Y26825D01*
X237356Y26771D01*
X237301Y26715D01*
X237249Y26656D01*
X237200Y26594D01*
X237154Y26530D01*
X237111Y26464D01*
X237071Y26396D01*
X237035Y26326D01*
X237003Y26254D01*
X236974Y26180D01*
X236949Y26106D01*
X236928Y26030D01*
X236910Y25953D01*
X236897Y25875D01*
X236887Y25797D01*
X236881Y25719D01*
X236879Y25640D01*
X236878Y25640D02*
X236878Y24850D01*
X240039Y24850D01*
X232903Y22479D02*
X231322Y22479D01*
X232903Y22479D02*
X232969Y22481D01*
X233036Y22486D01*
X233101Y22496D01*
X233167Y22509D01*
X233231Y22525D01*
X233294Y22545D01*
X233356Y22569D01*
X233417Y22596D01*
X233476Y22627D01*
X233533Y22661D01*
X233589Y22698D01*
X233642Y22738D01*
X233693Y22780D01*
X233741Y22826D01*
X233787Y22874D01*
X233829Y22925D01*
X233869Y22978D01*
X233906Y23034D01*
X233940Y23091D01*
X233971Y23150D01*
X233998Y23211D01*
X234022Y23273D01*
X234042Y23336D01*
X234058Y23400D01*
X234071Y23466D01*
X234081Y23531D01*
X234086Y23598D01*
X234088Y23664D01*
X234088Y26035D01*
X234086Y26101D01*
X234081Y26168D01*
X234071Y26233D01*
X234058Y26299D01*
X234042Y26363D01*
X234022Y26426D01*
X233998Y26488D01*
X233971Y26549D01*
X233940Y26608D01*
X233906Y26665D01*
X233869Y26721D01*
X233829Y26774D01*
X233787Y26825D01*
X233741Y26873D01*
X233693Y26919D01*
X233642Y26961D01*
X233589Y27001D01*
X233533Y27038D01*
X233476Y27072D01*
X233417Y27103D01*
X233356Y27130D01*
X233294Y27154D01*
X233231Y27174D01*
X233167Y27190D01*
X233101Y27203D01*
X233036Y27213D01*
X232969Y27218D01*
X232903Y27220D01*
X231322Y27220D01*
X228609Y27220D02*
X228609Y23664D01*
X228607Y23598D01*
X228602Y23531D01*
X228592Y23466D01*
X228579Y23400D01*
X228563Y23336D01*
X228543Y23273D01*
X228519Y23211D01*
X228492Y23150D01*
X228461Y23091D01*
X228427Y23034D01*
X228390Y22978D01*
X228350Y22925D01*
X228308Y22874D01*
X228262Y22826D01*
X228214Y22780D01*
X228163Y22738D01*
X228110Y22698D01*
X228054Y22661D01*
X227997Y22627D01*
X227938Y22596D01*
X227877Y22569D01*
X227815Y22545D01*
X227752Y22525D01*
X227688Y22509D01*
X227622Y22496D01*
X227557Y22486D01*
X227490Y22481D01*
X227424Y22479D01*
X225448Y22479D01*
X225448Y27220D01*
X222172Y27220D02*
X222172Y22479D01*
X222172Y27220D02*
X219801Y27220D01*
X219801Y26430D01*
X216451Y22479D02*
X214476Y22479D01*
X216451Y22479D02*
X216517Y22481D01*
X216584Y22486D01*
X216649Y22496D01*
X216715Y22509D01*
X216779Y22525D01*
X216842Y22545D01*
X216904Y22569D01*
X216965Y22596D01*
X217024Y22627D01*
X217081Y22661D01*
X217137Y22698D01*
X217190Y22738D01*
X217241Y22780D01*
X217289Y22826D01*
X217335Y22874D01*
X217377Y22925D01*
X217417Y22978D01*
X217454Y23034D01*
X217488Y23091D01*
X217519Y23150D01*
X217546Y23211D01*
X217570Y23273D01*
X217590Y23336D01*
X217606Y23400D01*
X217619Y23466D01*
X217629Y23531D01*
X217634Y23598D01*
X217636Y23664D01*
X217636Y25640D01*
X217634Y25719D01*
X217628Y25797D01*
X217618Y25875D01*
X217605Y25953D01*
X217587Y26030D01*
X217566Y26106D01*
X217541Y26180D01*
X217512Y26254D01*
X217480Y26326D01*
X217444Y26396D01*
X217404Y26464D01*
X217361Y26530D01*
X217315Y26594D01*
X217266Y26656D01*
X217214Y26715D01*
X217159Y26771D01*
X217101Y26825D01*
X217041Y26875D01*
X216978Y26923D01*
X216913Y26967D01*
X216846Y27008D01*
X216777Y27046D01*
X216706Y27080D01*
X216633Y27111D01*
X216559Y27138D01*
X216484Y27161D01*
X216408Y27180D01*
X216330Y27196D01*
X216252Y27208D01*
X216174Y27216D01*
X216095Y27220D01*
X216017Y27220D01*
X215938Y27216D01*
X215860Y27208D01*
X215782Y27196D01*
X215704Y27180D01*
X215628Y27161D01*
X215553Y27138D01*
X215479Y27111D01*
X215406Y27080D01*
X215335Y27046D01*
X215266Y27008D01*
X215199Y26967D01*
X215134Y26923D01*
X215071Y26875D01*
X215011Y26825D01*
X214953Y26771D01*
X214898Y26715D01*
X214846Y26656D01*
X214797Y26594D01*
X214751Y26530D01*
X214708Y26464D01*
X214668Y26396D01*
X214632Y26326D01*
X214600Y26254D01*
X214571Y26180D01*
X214546Y26106D01*
X214525Y26030D01*
X214507Y25953D01*
X214494Y25875D01*
X214484Y25797D01*
X214478Y25719D01*
X214476Y25640D01*
X214476Y24850D01*
X217636Y24850D01*
X211592Y23664D02*
X211592Y29591D01*
X211591Y23664D02*
X211589Y23598D01*
X211584Y23531D01*
X211574Y23466D01*
X211561Y23400D01*
X211545Y23336D01*
X211525Y23273D01*
X211501Y23211D01*
X211474Y23150D01*
X211443Y23091D01*
X211409Y23034D01*
X211372Y22978D01*
X211332Y22925D01*
X211290Y22874D01*
X211244Y22826D01*
X211196Y22780D01*
X211145Y22738D01*
X211092Y22698D01*
X211036Y22661D01*
X210979Y22627D01*
X210920Y22596D01*
X210859Y22569D01*
X210797Y22545D01*
X210734Y22525D01*
X210670Y22509D01*
X210604Y22496D01*
X210539Y22486D01*
X210472Y22481D01*
X210406Y22479D01*
X208264Y20108D02*
X207474Y20108D01*
X205103Y27220D01*
X208264Y27220D02*
X206683Y22479D01*
X202166Y22479D02*
X202166Y28406D01*
X202164Y28472D01*
X202159Y28539D01*
X202149Y28604D01*
X202136Y28670D01*
X202120Y28734D01*
X202100Y28797D01*
X202076Y28859D01*
X202049Y28920D01*
X202018Y28979D01*
X201984Y29036D01*
X201947Y29092D01*
X201907Y29145D01*
X201865Y29196D01*
X201819Y29244D01*
X201771Y29290D01*
X201720Y29332D01*
X201667Y29372D01*
X201611Y29409D01*
X201554Y29443D01*
X201495Y29474D01*
X201434Y29501D01*
X201372Y29525D01*
X201309Y29545D01*
X201245Y29561D01*
X201179Y29574D01*
X201114Y29584D01*
X201047Y29589D01*
X200981Y29591D01*
X200586Y29591D01*
X200586Y27220D02*
X202956Y27220D01*
X198683Y27220D02*
X198683Y22479D01*
X198880Y29196D02*
X198880Y29591D01*
X198485Y29591D01*
X198485Y29196D01*
X198880Y29196D01*
X196490Y27220D02*
X194119Y27220D01*
X195699Y29591D02*
X195699Y23664D01*
X195697Y23598D01*
X195692Y23531D01*
X195682Y23466D01*
X195669Y23400D01*
X195653Y23336D01*
X195633Y23273D01*
X195609Y23211D01*
X195582Y23150D01*
X195551Y23091D01*
X195517Y23034D01*
X195480Y22978D01*
X195440Y22925D01*
X195398Y22874D01*
X195352Y22826D01*
X195304Y22780D01*
X195253Y22738D01*
X195200Y22698D01*
X195144Y22661D01*
X195087Y22627D01*
X195028Y22596D01*
X194967Y22569D01*
X194905Y22545D01*
X194842Y22525D01*
X194778Y22509D01*
X194712Y22496D01*
X194647Y22486D01*
X194580Y22481D01*
X194514Y22479D01*
X194119Y22479D01*
X191805Y27220D02*
X188644Y27220D01*
X191805Y22479D01*
X188644Y22479D01*
M02*
